<svg width="20" height="35" viewBox="0 0 14 35" fill="none" xmlns="http://www.w3.org/2000/svg">
<path d="M9.67457 0.6401C9.09574 0.3597 5.49061 3.0123453 5.18728 3.28307C3.85432 4.4616 2.04549 6.22172 3.57882 7.2C5.13998 8.93497 7.68903 9.39413 9.60222 10.4725C11.6031 11.5995 9.83597 13.7005 8.90512 14.9305C6.56478 18.0236 4.52915 21.3213 2.78989 24.5535C2.32516 25.4162 -1.01699 34.2808 0.309016 34.349C-0.470171 34.3086 2.96243 26.6267 3.27271 26.1258C5.46974 22.593 8.53501 19.2745 11.6865 16.0158C12.9597 14.6996 14.2718 13.0104 13.885 11.4451C13.4884 9.84216 10.9268 9.01149 8.78129 8.26987C5.94838 7.29032 4.39557 6.74767 5.8802 4.72874C6.20579 4.28767 9.95424 0.746541 9.67457 0.607401Z" fill="#ED165F"/>
</svg>
