<svg width="26" height="41" viewBox="0 0 26 41" fill="none" xmlns="http://www.w3.org/2000/svg">
<path d="M9.67457 6.6074C9.09574 6.3166 5.49061 9.01453 5.18728 9.28307C3.85432 10.4616 2.04549 12.2217 3.57882 13.5658C5.13998 14.935 7.68903 15.3941 9.60222 16.4725C11.6031 17.5995 9.83597 19.7005 8.90512 20.9305C6.56478 24.0236 4.52915 27.3213 2.78989 30.5535C2.32516 31.4162 -1.01699 40.2808 0.309016 40.349C-0.470171 40.3086 2.96243 32.6267 3.27271 32.1258C5.46974 28.593 8.53501 25.2745 11.6865 22.0158C12.9597 20.6996 14.2718 19.0104 13.885 17.4451C13.4884 15.8422 10.9268 15.0115 8.78129 14.2699C5.94838 13.2903 4.39557 12.7477 5.8802 10.7287C6.20579 10.2877 9.95424 6.74654 9.67457 6.6074Z" fill="#ED165F"/>
<path d="M7.1909 2.47213C7.27021 2.43735 7.31195 2.27733 7.35648 2.1048C7.401 1.93227 7.44831 1.74999 7.53875 1.67068C7.78503 1.45501 8.00348 1.37292 8.23306 1.36457C8.46265 1.35622 8.70475 1.42023 8.99556 1.49536C9.30445 1.57467 9.56325 1.7166 9.82901 1.85296C10.0948 1.98931 10.3689 2.12289 10.707 2.1855C11.0367 2.24672 11.3303 2.24533 11.6225 2.22864C11.9147 2.21333 12.2055 2.18272 12.5297 2.18411C13.0195 2.18689 13.5858 2.2175 14.0324 2.37891C14.4791 2.54031 14.8061 2.8339 14.8158 3.36541C14.8269 3.96928 14.4332 4.20026 13.9712 4.3714C13.5093 4.54254 12.9805 4.65107 12.7259 5.01006C12.7037 5.04067 13.3284 5.50261 13.9851 5.97569C14.6433 6.44877 15.3348 6.93437 15.4475 7.0109C16.0736 7.43249 16.7262 7.77617 17.4261 8.04193C18.1246 8.30769 18.869 8.49553 19.676 8.60545C20.4273 8.70702 21.0326 8.79607 21.8396 8.68337C22.2793 8.62215 23.0863 8.50109 23.7945 8.01271C24.1104 7.79565 24.3678 7.52989 24.5654 7.32814C25.0413 6.84115 25.2347 6.50303 25.282 6.52112C25.3376 6.54339 25.1373 7.0596 24.7741 7.56607C24.6447 7.74556 24.3706 8.1282 23.9281 8.45796C23.1197 9.05905 22.1596 9.1801 21.3693 9.27889C20.2186 9.4236 19.2586 9.32898 18.6533 9.23715C17.472 9.06044 16.3116 8.84199 13.9392 7.49093C12.4727 6.65609 11.0521 5.72106 9.49646 5.14641C8.85224 4.90848 6.90845 4.24339 5.25128 3.4002C3.59412 2.55701 2.22219 1.53572 2.72031 0.585385C3.28662 -0.495737 4.11033 0.103959 4.93961 0.910974C5.76749 1.71799 6.60234 2.72954 7.1909 2.47213Z" fill="#ED165F"/>
</svg>
